<?xml version="1.0" encoding="utf-8"?>
<svg version="1.1" id="Layer_1" x="0px" y="0px" viewBox="0 0 127.885 128.88" enable-background="new 0 0 127.885 128.88" width="0px" xmlns="http://www.w3.org/2000/svg">
  <g>
    <polygon fill="#FFFFFF" points="96.389,0.01 96.389,32.67 93.083,32.654 106.266,67.875 117.571,67.89 117.571,100.576 &#10;&#9;&#9;8.621,100.576 8.621,67.934 19.845,67.947 33.146,32.628 29.766,32.636 29.779,0 &#9;"/>
    <polyline fill="#0C234B" points="63.096,12.119 84.137,12.119 84.137,20.535 75.397,20.535 98.379,79.771 105.176,79.771 &#10;&#9;&#9;105.176,88.487 76.692,88.487 76.692,80.008 68.695,80.008 68.695,96.634 113.655,96.634 113.655,71.845 103.559,71.861 &#10;&#9;&#9;87.375,28.715 92.458,28.715 92.458,3.94 63.096,3.94 63.096,3.94 33.734,3.94 33.734,28.715 38.818,28.715 22.633,71.807 &#10;&#9;&#9;12.537,71.845 12.537,96.634 57.5,96.634 57.5,80.008 49.5,80.008 49.5,88.487 21.016,88.487 21.016,79.771 27.812,79.771 &#10;&#9;&#9;50.795,20.535 42.055,20.535 42.055,12.119 63.096,12.119 &#9;"/>
    <path fill="#AB0520" d="M63.075,12.195l23.335,60.51c0,0,2.99,7.363,7.846,7.363h-16.99c0,0,0.854,0.125,1.703-1.293 c0.488-0.809,0.076-2.023,0.076-2.023l-5.254-13.508H63.075H52.403l-5.262,13.508c0,0-0.401,1.215,0.084,2.023 c0.848,1.418,1.698,1.293,1.698,1.293H31.935c4.854,0,7.846-7.363,7.846-7.363L63.075,12.195 M63.057,56.83h8.221l-8.202-21.227 L54.874,56.83H63.057L63.057,56.83z"/>
    <g/>
  </g>
</svg>