<?xml version="1.0" encoding="utf-8"?>
<!-- Generator: Adobe Illustrator 17.1.0, SVG Export Plug-In . SVG Version: 6.00 Build 0)  -->
<!DOCTYPE svg PUBLIC "-//W3C//DTD SVG 1.1//EN" "http://www.w3.org/Graphics/SVG/1.1/DTD/svg11.dtd">
<svg version="1.1" id="Layer_1" xmlns="http://www.w3.org/2000/svg" xmlns:xlink="http://www.w3.org/1999/xlink" x="0px" y="0px"
	 viewBox="0 0 424.268 100.574" enable-background="new 0 0 424.268 100.574" xml:space="preserve">
<g>
	<path fill="#FFFFFF" d="M121.515,43.582c0,1.643,0.144,2.859,0.441,3.65c0.285,0.781,0.777,1.492,1.457,2.117h-8.789
		c0.691-0.625,1.187-1.336,1.469-2.117c0.289-0.791,0.429-2.008,0.429-3.65V20.359h-2.589c-1.778,0-3.223,0.139-4.325,0.416
		c-1.105,0.281-1.992,0.73-2.648,1.354l1.586-5.34h22.883l-1.5,5.248c-0.477-0.574-1.102-1-1.875-1.271
		c-0.782-0.273-1.758-0.406-2.938-0.406h-3.601V43.582L121.515,43.582z"/>
	<path fill="#FFFFFF" d="M138.89,44.248c0,1.459,0.132,2.547,0.379,3.25c0.257,0.703,0.691,1.336,1.304,1.891h-7.84
		c0.598-0.555,1.028-1.188,1.289-1.891c0.258-0.703,0.391-1.791,0.391-3.25V25.445c0-1.467-0.133-2.547-0.391-3.246
		c-0.261-0.697-0.691-1.318-1.289-1.861h7.84c-0.613,0.543-1.047,1.164-1.304,1.861c-0.247,0.699-0.379,1.779-0.379,3.246v6.506
		h15.398v-6.506c0-1.467-0.133-2.547-0.383-3.246c-0.254-0.697-0.686-1.318-1.304-1.861h7.843c-0.601,0.543-1.031,1.164-1.289,1.861
		c-0.258,0.699-0.39,1.779-0.39,3.246v18.803c0,1.459,0.125,2.547,0.379,3.25c0.253,0.703,0.691,1.336,1.3,1.891h-7.843
		c0.617-0.555,1.05-1.188,1.304-1.891c0.25-0.703,0.383-1.791,0.383-3.25v-8.949H138.89V44.248L138.89,44.248z"/>
	<path fill="#FFFFFF" d="M164.249,49.389c0.602-0.555,1.031-1.188,1.289-1.891c0.262-0.703,0.391-1.793,0.391-3.256V25.463
		c0-1.469-0.129-2.555-0.391-3.256c-0.258-0.701-0.687-1.322-1.289-1.869h15.656v4.586c-0.695-0.566-1.469-0.973-2.304-1.226
		c-0.836-0.252-1.805-0.379-2.895-0.379c-0.566,0-1.199,0.043-1.895,0.137c-0.703,0.09-1.484,0.232-2.367,0.412v8.184h7.024v4.223
		c-0.336-0.391-0.782-0.672-1.344-0.832c-0.563-0.158-1.598-0.242-3.094-0.242h-2.586v10.416c1.086,0.164,2.067,0.285,2.946,0.369
		c0.879,0.086,1.636,0.127,2.281,0.127c1.457,0,2.828-0.197,4.117-0.592c1.289-0.395,2.563-1.004,3.809-1.814l-2,5.684H164.249
		L164.249,49.389z"/>
	<path fill="#FFFFFF" d="M220.124,49.338v-2.453c-1.563,1.133-3.133,1.98-4.711,2.535c-1.586,0.555-3.199,0.84-4.82,0.84
		c-1.856,0-3.516-0.316-4.969-0.934c-1.453-0.621-2.711-1.551-3.766-2.801c-0.828-0.977-1.422-2.117-1.781-3.416
		c-0.359-1.299-0.539-3.045-0.539-5.236V22.631c0-1.633-0.148-2.842-0.422-3.617c-0.289-0.779-0.762-1.471-1.437-2.078h8.711
		c-0.668,0.608-1.149,1.299-1.426,2.078c-0.285,0.775-0.422,1.984-0.422,3.617v14.238c0,2.223,0.105,3.875,0.316,4.949
		c0.211,1.07,0.578,1.932,1.082,2.566c0.61,0.762,1.422,1.334,2.446,1.719c1.011,0.379,2.222,0.568,3.636,0.568
		c1.157,0,2.27-0.174,3.278-0.529c1.012-0.344,1.898-0.855,2.66-1.525c0.68-0.559,1.156-1.287,1.453-2.182
		c0.285-0.895,0.434-2.111,0.434-3.652V22.631c0-1.697-0.141-2.922-0.418-3.678c-0.281-0.754-0.758-1.426-1.438-2.018h8.781
		c-0.684,0.592-1.164,1.299-1.457,2.125c-0.289,0.824-0.434,2.014-0.434,3.57v20.98c0,1.633,0.145,2.838,0.434,3.621
		c0.293,0.785,0.773,1.484,1.457,2.105H220.124L220.124,49.338z"/>
	<path fill="#FFFFFF" d="M258.639,20.338c-0.621,0.543-1.055,1.164-1.305,1.861c-0.254,0.697-0.379,1.777-0.379,3.242v24.623
		c-0.996-0.031-1.949-0.355-2.848-0.984c-0.895-0.629-2.02-1.824-3.375-3.58L235.96,26.59v17.652c0,1.521,0.125,2.623,0.375,3.311
		c0.242,0.68,0.672,1.297,1.277,1.836h-6.496c0.605-0.555,1.039-1.188,1.293-1.891c0.262-0.703,0.391-1.791,0.391-3.256V25.441
		c0-1.465-0.129-2.545-0.391-3.242c-0.254-0.697-0.688-1.318-1.293-1.861h5.812l16.93,21.816V25.441
		c0-1.465-0.133-2.545-0.387-3.242c-0.262-0.697-0.691-1.318-1.293-1.861H258.639L258.639,20.338z"/>
	<path fill="#FFFFFF" d="M269.483,44.242c0,1.465,0.125,2.553,0.379,3.256c0.254,0.703,0.684,1.336,1.301,1.891h-7.844
		c0.617-0.555,1.047-1.188,1.305-1.891c0.25-0.703,0.375-1.791,0.375-3.256V25.441c0-1.465-0.125-2.545-0.375-3.242
		c-0.258-0.697-0.688-1.318-1.305-1.861h7.844c-0.617,0.543-1.047,1.164-1.301,1.861c-0.254,0.697-0.379,1.777-0.379,3.242V44.242
		L269.483,44.242z"/>
	<path fill="#FFFFFF" d="M287.772,50.127c-1.219-0.32-2.266-1.02-3.125-2.105c-0.867-1.078-1.664-2.693-2.395-4.84L276.46,26.26
		c-0.469-1.399-0.914-2.535-1.328-3.412c-0.414-0.879-0.891-1.717-1.406-2.51l5.914,0.02c0.027,0.475,0.07,0.916,0.148,1.318
		c0.062,0.404,0.148,0.789,0.262,1.152l6.965,20.789l6.59-17.316c0.191-0.531,0.348-1.066,0.465-1.604
		c0.113-0.531,0.176-1.027,0.176-1.475c0-0.387-0.117-0.803-0.332-1.242c-0.223-0.439-0.586-0.988-1.109-1.643h6.559L287.772,50.127
		L287.772,50.127z"/>
	<path fill="#FFFFFF" d="M301.358,49.389c0.602-0.555,1.039-1.188,1.293-1.891c0.262-0.703,0.395-1.793,0.395-3.256V25.463
		c0-1.469-0.133-2.555-0.395-3.256c-0.254-0.701-0.691-1.322-1.293-1.869h15.656v4.586c-0.695-0.566-1.461-0.973-2.301-1.226
		c-0.84-0.252-1.801-0.379-2.902-0.379c-0.559,0-1.191,0.043-1.883,0.137c-0.707,0.09-1.496,0.232-2.371,0.412v8.184h7.02v4.223
		c-0.328-0.391-0.781-0.672-1.344-0.832c-0.562-0.158-1.594-0.242-3.094-0.242h-2.582v10.416c1.09,0.164,2.066,0.285,2.945,0.369
		c0.879,0.086,1.637,0.127,2.285,0.127c1.449,0,2.82-0.197,4.109-0.592c1.289-0.395,2.562-1.004,3.812-1.814l-2,5.684H301.358
		L301.358,49.389z"/>
	<path fill="#FFFFFF" d="M328.858,44.248c0,1.459,0.125,2.547,0.383,3.25c0.25,0.703,0.684,1.336,1.297,1.891h-7.844
		c0.602-0.555,1.031-1.188,1.293-1.891c0.262-0.703,0.387-1.791,0.387-3.25V25.451c0-1.465-0.125-2.549-0.387-3.248
		c-0.262-0.699-0.691-1.32-1.293-1.865h9.906c2.82,0,5.102,0.684,6.836,2.049c1.734,1.371,2.607,3.149,2.607,5.336
		c0,1.592-0.521,2.996-1.568,4.205c-1.047,1.217-2.664,2.283-4.859,3.205l7.436,10.057c0.432,0.598,0.967,1.236,1.582,1.902
		c0.615,0.672,1.328,1.367,2.115,2.09l-2.219,0.207h-0.35c-1.039,0-2.057-0.273-3.049-0.836c-0.988-0.555-1.824-1.324-2.508-2.297
		l-8.516-11.924c2.539-0.576,4.383-1.363,5.562-2.359c1.172-0.998,1.754-2.281,1.754-3.863c0-1.465-0.496-2.658-1.508-3.578
		c-1.004-0.924-2.324-1.383-3.953-1.383c-0.371,0-0.816,0.031-1.34,0.092c-0.52,0.066-1.109,0.16-1.766,0.285V44.248L328.858,44.248
		z"/>
	<path fill="#FFFFFF" d="M348.141,48.74l-1.361-5.273c1.656,1.129,3.275,1.971,4.828,2.518c1.572,0.553,3.121,0.83,4.658,0.83
		c1.961,0,3.535-0.428,4.733-1.287c1.188-0.857,1.785-1.971,1.785-3.336c0-0.391-0.06-0.783-0.185-1.174
		c-0.121-0.391-0.293-0.76-0.537-1.105c-0.514-0.797-2.264-1.936-5.242-3.412c-0.75-0.363-1.336-0.65-1.75-0.857
		c-2.781-1.424-4.695-2.738-5.725-3.936c-1.039-1.197-1.557-2.625-1.557-4.27c0-2.359,0.953-4.232,2.846-5.619
		c1.889-1.389,4.49-2.084,7.785-2.084c0.947,0,1.986,0.062,3.129,0.191c1.139,0.123,2.375,0.318,3.711,0.584v4.883
		c-1.182-0.914-2.367-1.59-3.564-2.039c-1.195-0.447-2.436-0.672-3.725-0.672c-1.633,0-2.947,0.354-3.947,1.068
		c-0.992,0.709-1.492,1.641-1.492,2.783c0,1.022,0.397,1.924,1.182,2.705c0.771,0.779,2.525,1.828,5.25,3.141
		c0.154,0.07,0.391,0.18,0.707,0.334c2.301,1.072,4.022,2.068,5.168,2.971c0.844,0.668,1.508,1.486,1.979,2.445
		c0.482,0.963,0.711,1.988,0.711,3.08c0,2.496-1.121,4.611-3.375,6.352c-2.25,1.734-5.057,2.602-8.436,2.602
		c-1.086,0-2.246-0.121-3.496-0.356C350.961,49.568,349.608,49.213,348.141,48.74L348.141,48.74z"/>
	<path fill="#FFFFFF" d="M377.577,44.242c0,1.465,0.129,2.553,0.385,3.256c0.254,0.703,0.686,1.336,1.305,1.891h-7.853
		c0.617-0.555,1.057-1.188,1.307-1.891c0.254-0.703,0.383-1.791,0.383-3.256V25.441c0-1.465-0.129-2.545-0.383-3.242
		c-0.25-0.697-0.69-1.318-1.307-1.861h7.853c-0.619,0.543-1.051,1.164-1.305,1.861c-0.256,0.697-0.385,1.777-0.385,3.242V44.242
		L377.577,44.242z"/>
	<path fill="#FFFFFF" d="M216.803,69.186l-4.739,12.094h9.376L216.803,69.186L216.803,69.186z M217.35,58.795l2.586,6.305
		l9.828,24.618c1.086,2.73,1.934,5.422,4.625,6.797v0.148h-9.688v-0.148c2.32-1.047,1.938-1.57,0.668-4.922l-2.551-6.767h-11.992
		l-2.453,6.767c-0.996,2.684-1.324,4.066,0.941,4.922v0.148h-8.691v-0.148c2.734-1.375,3.547-4.066,4.578-6.797L217.35,58.99V58.795
		L217.35,58.795z"/>
	<path fill="#FFFFFF" d="M156.654,70.037c-3.179,0-5.811,1.109-7.875,3.324c-2.07,2.219-3.101,5.051-3.101,8.496
		c0,3.559,1.023,6.508,3.07,8.86c2.043,2.352,4.598,3.523,7.664,3.523c3.168,0,5.789-1.109,7.859-3.336
		c2.059-2.224,3.086-5.063,3.086-8.524c0-3.562-1.015-6.504-3.062-8.836C162.249,71.201,159.702,70.037,156.654,70.037
		L156.654,70.037z M156.499,97.366c-2.188,0-4.242-0.352-6.172-1.062c-1.926-0.707-3.586-1.719-4.969-3.039
		c-1.461-1.391-2.582-3.039-3.375-4.927c-0.789-1.895-1.179-3.879-1.179-5.957c0-1.633,0.25-3.215,0.75-4.75
		c0.504-1.531,1.234-2.969,2.195-4.297c1.492-2.047,3.344-3.621,5.547-4.719c2.203-1.109,4.609-1.656,7.203-1.656
		c2.223,0,4.305,0.352,6.23,1.059c1.934,0.699,3.586,1.715,4.973,3.043c1.484,1.398,2.613,3.043,3.399,4.949
		c0.785,1.902,1.175,3.957,1.175,6.16c0,2.023-0.441,4.004-1.316,5.949c-0.883,1.942-2.117,3.653-3.711,5.146
		c-1.426,1.352-3.059,2.367-4.883,3.062C160.538,97.019,158.585,97.366,156.499,97.366L156.499,97.366z"/>
	<path fill="#FFFFFF" d="M180.827,91.538c0,1.469,0.121,2.547,0.375,3.25c0.258,0.695,0.695,1.328,1.313,1.879h-7.848
		c0.605-0.551,1.035-1.184,1.293-1.879c0.258-0.703,0.391-1.781,0.391-3.25V72.756c0-1.469-0.133-2.555-0.391-3.258
		c-0.258-0.695-0.688-1.32-1.293-1.867h15.676v4.586c-0.696-0.57-1.461-0.977-2.297-1.234c-0.836-0.25-1.809-0.375-2.914-0.375
		c-0.571,0-1.199,0.047-1.903,0.137c-0.703,0.09-1.488,0.23-2.367,0.418v8.18h7.047v4.219c-0.332-0.391-0.781-0.672-1.348-0.828
		c-0.566-0.164-1.609-0.242-3.117-0.242h-2.617V91.538L180.827,91.538z"/>
	<path fill="#FFFFFF" d="M242.651,91.546c0,1.461,0.129,2.543,0.383,3.242c0.254,0.695,0.688,1.328,1.301,1.879h-7.844
		c0.602-0.551,1.035-1.184,1.293-1.879c0.262-0.699,0.391-1.781,0.391-3.242V72.74c0-1.469-0.129-2.547-0.391-3.25
		c-0.258-0.695-0.691-1.32-1.293-1.859h9.902c2.824,0,5.102,0.68,6.844,2.047c1.73,1.367,2.598,3.149,2.598,5.336
		c0,1.59-0.516,2.992-1.562,4.207c-1.043,1.215-2.664,2.277-4.859,3.199l7.43,10.063c0.441,0.602,0.965,1.234,1.59,1.898
		c0.617,0.664,1.316,1.359,2.117,2.078l-2.223,0.207h-0.352c-1.043,0-2.055-0.273-3.043-0.832c-0.992-0.551-1.828-1.316-2.512-2.281
		l-8.516-11.935c2.531-0.574,4.387-1.355,5.559-2.355c1.168-1,1.758-2.285,1.758-3.859c0-1.469-0.504-2.664-1.512-3.582
		c-1-0.918-2.32-1.387-3.953-1.387c-0.371,0-0.82,0.039-1.336,0.102c-0.52,0.059-1.109,0.156-1.77,0.281V91.546L242.651,91.546z"/>
	<path fill="#FFFFFF" d="M269.163,91.538c0,1.469,0.121,2.551,0.375,3.25c0.25,0.695,0.688,1.328,1.305,1.879h-7.844
		c0.609-0.551,1.043-1.184,1.297-1.879c0.254-0.699,0.383-1.781,0.383-3.25V72.732c0-1.469-0.129-2.543-0.383-3.242
		c-0.254-0.695-0.688-1.32-1.297-1.859h7.844c-0.617,0.539-1.055,1.164-1.305,1.859c-0.254,0.699-0.375,1.774-0.375,3.242V91.538
		L269.163,91.538z"/>
	<path fill="#FFFFFF" d="M298.182,91.233l-2.082,5.434h-22.312l15.227-25.302c-1.133-0.289-2.211-0.508-3.219-0.648
		c-1.012-0.141-1.945-0.211-2.812-0.211c-1.262,0-2.484,0.156-3.656,0.477c-1.172,0.312-2.367,0.812-3.59,1.5l1.973-4.852h18.555
		l-15.215,25.29c1.688,0.195,3.105,0.336,4.266,0.422c1.145,0.086,2.145,0.133,2.984,0.133c1.973,0,3.785-0.188,5.414-0.562
		C295.342,92.538,296.831,91.979,298.182,91.233L298.182,91.233z"/>
	<path fill="#FFFFFF" d="M314.819,70.037c-3.188,0-5.82,1.109-7.883,3.324c-2.062,2.219-3.102,5.051-3.102,8.496
		c0,3.559,1.031,6.508,3.074,8.86c2.043,2.352,4.598,3.523,7.66,3.523c3.172,0,5.789-1.109,7.859-3.336
		c2.062-2.224,3.094-5.063,3.094-8.524c0-3.562-1.02-6.504-3.062-8.836C320.413,71.201,317.866,70.037,314.819,70.037
		L314.819,70.037z M314.663,97.366c-2.191,0-4.242-0.352-6.172-1.062c-1.934-0.707-3.59-1.719-4.977-3.039
		c-1.453-1.391-2.578-3.039-3.367-4.927c-0.789-1.895-1.18-3.879-1.18-5.957c0-1.633,0.242-3.215,0.75-4.75
		c0.492-1.531,1.227-2.969,2.188-4.297c1.5-2.047,3.359-3.621,5.555-4.719c2.203-1.109,4.605-1.656,7.203-1.656
		c2.227,0,4.297,0.352,6.227,1.059c1.93,0.699,3.586,1.715,4.977,3.043c1.484,1.398,2.609,3.043,3.398,4.949
		c0.781,1.902,1.172,3.957,1.172,6.16c0,2.023-0.438,4.004-1.32,5.949c-0.875,1.942-2.117,3.653-3.703,5.146
		c-1.43,1.352-3.059,2.367-4.883,3.062C318.702,97.019,316.741,97.366,314.663,97.366L314.663,97.366z"/>
	<path fill="#FFFFFF" d="M360.28,67.631c-0.621,0.539-1.053,1.164-1.303,1.859c-0.258,0.699-0.379,1.774-0.379,3.242v24.603
		c-1.004-0.031-1.951-0.355-2.85-0.977c-0.897-0.625-2.02-1.812-3.375-3.562l-14.77-18.915v17.657c0,1.523,0.125,2.625,0.371,3.301
		c0.242,0.676,0.668,1.289,1.273,1.828h-6.488c0.598-0.551,1.027-1.184,1.289-1.879c0.262-0.699,0.395-1.781,0.395-3.25V72.732
		c0-1.469-0.133-2.543-0.395-3.242c-0.262-0.695-0.691-1.32-1.289-1.859h5.801l16.943,21.816V72.732
		c0-1.469-0.139-2.543-0.396-3.242c-0.26-0.695-0.689-1.32-1.293-1.859H360.28L360.28,67.631z"/>
	<path fill="#FFFFFF" d="M370.836,82.889h8.436l-4.045-11.227L370.836,82.889L370.836,82.889z M366.969,92.753
		c-0.133,0.293-0.229,0.598-0.285,0.91c-0.06,0.312-0.086,0.633-0.086,0.965c0,0.277,0.088,0.586,0.289,0.914
		c0.207,0.332,0.521,0.707,0.965,1.125h-6.758c0.557-0.387,1.064-0.918,1.51-1.598c0.447-0.684,0.904-1.609,1.373-2.797
		l8.053-20.735c0.164-0.391,0.289-0.773,0.371-1.148s0.121-0.711,0.121-1c0-0.34-0.078-0.649-0.229-0.922
		c-0.16-0.281-0.424-0.559-0.777-0.836h6.51l9.107,24.349c0.422,1.102,0.883,1.996,1.371,2.684c0.494,0.684,1.119,1.355,1.887,2.004
		h-8.207l0.104-0.105c0.76-0.805,1.135-1.391,1.135-1.766c0-0.445-0.164-1.094-0.492-1.961c-0.047-0.141-0.078-0.242-0.104-0.312
		l-2.453-6.72h-10.672L366.969,92.753L366.969,92.753z"/>
	<path fill="#FFFFFF" d="M405.401,20.293l7.451,12.664l5.006-8.246c0.305-0.504,0.539-0.959,0.697-1.373
		c0.15-0.412,0.232-0.764,0.232-1.061c0-0.334-0.098-0.662-0.297-0.988c-0.203-0.332-0.5-0.662-0.922-0.996h6.699l-9.828,15.992
		v7.932c0,1.467,0.129,2.555,0.387,3.258c0.268,0.711,0.695,1.336,1.297,1.891h-7.891c0.619-0.555,1.055-1.18,1.305-1.891
		c0.25-0.703,0.385-1.791,0.385-3.258l0.008-8.016l-6.732-11.082c-0.676-0.992-1.176-1.142-1.828-1.377
		c-0.693-0.244-1.861-0.268-2.926-0.268h-3.211v20.746c0,1.463,0.125,2.551,0.391,3.254c0.264,0.711,0.688,1.336,1.299,1.891h-7.853
		c0.611-0.555,1.047-1.18,1.305-1.891c0.246-0.703,0.371-1.791,0.371-3.254V23.475h-2.297c-1.594,0-2.887,0.123-3.871,0.377
		c-0.99,0.25-1.779,0.656-2.375,1.213l1.428-4.772H405.401L405.401,20.293z"/>
	<polygon fill="#FFFFFF" points="87.769,0.01 87.769,32.67 84.461,32.655 97.646,67.875 108.949,67.89 108.949,100.574 0,100.574 
		0,67.934 11.224,67.948 24.524,32.628 21.145,32.636 21.158,0 87.769,0.01 	"/>
	<polyline fill="#0C234B" points="54.475,12.12 75.517,12.12 75.517,20.536 66.775,20.536 89.759,79.772 96.556,79.772 
		96.556,88.486 68.07,88.486 68.07,80.009 60.074,80.009 60.074,96.633 105.034,96.633 105.034,71.845 94.939,71.862 78.754,28.715 
		83.837,28.715 83.837,3.94 54.475,3.94 54.475,3.94 25.113,3.94 25.113,28.715 30.198,28.715 14.012,71.808 3.916,71.845 
		3.916,96.633 48.879,96.633 48.879,80.009 40.879,80.009 40.879,88.486 12.394,88.486 12.394,79.772 19.192,79.772 42.174,20.536 
		33.434,20.536 33.434,12.12 54.475,12.12 	"/>
	<path fill="#FFFFFF" d="M118.029,89.434c0.822,0.803,1.232,1.787,1.232,2.953c0,1.162-0.409,2.144-1.229,2.949
		c-0.82,0.803-1.824,1.203-3.015,1.203c-1.189,0-2.191-0.4-3.013-1.203c-0.817-0.805-1.228-1.787-1.228-2.949
		c0-1.166,0.411-2.15,1.23-2.953c0.822-0.805,1.824-1.205,3.01-1.205C116.204,88.229,117.208,88.629,118.029,89.434L118.029,89.434
		L118.029,89.434z M117.431,89.934c-0.655-0.668-1.461-1.002-2.414-1.002c-0.952,0-1.754,0.334-2.41,1.002
		c-0.657,0.668-0.983,1.486-0.983,2.453c0,0.967,0.326,1.785,0.983,2.451c0.656,0.666,1.458,0.998,2.41,0.998
		c0.95,0,1.754-0.332,2.412-0.998c0.656-0.666,0.985-1.484,0.985-2.451C118.415,91.42,118.087,90.602,117.431,89.934L117.431,89.934
		L117.431,89.934z M113.178,89.982h0.38h1.545c0.52,0,0.926,0.115,1.222,0.344c0.294,0.23,0.442,0.551,0.442,0.959
		c0,0.441-0.148,0.793-0.444,1.045c-0.221,0.188-0.504,0.307-0.851,0.354l1.382,2.104h-0.436h-0.439l-1.244-2.076l-0.803,0.004
		v2.072h-0.377h-0.377V89.982L113.178,89.982L113.178,89.982z M113.932,92.074h1.023c0.355,0,0.615-0.062,0.779-0.189
		c0.165-0.127,0.246-0.326,0.246-0.598c0-0.238-0.081-0.412-0.246-0.525c-0.164-0.111-0.424-0.168-0.779-0.168h-1.023V92.074
		L113.932,92.074L113.932,92.074z"/>
	<path fill="#AB0520" d="M54.454,12.196l23.336,60.51c0,0,2.99,7.363,7.846,7.363h-16.99c0,0,0.853,0.125,1.703-1.293
		c0.487-0.809,0.076-2.023,0.076-2.023l-5.254-13.508H54.454H43.782l-5.262,13.508c0,0-0.401,1.215,0.084,2.023
		c0.848,1.418,1.698,1.293,1.698,1.293H23.314c4.854,0,7.846-7.363,7.846-7.363L54.454,12.196 M54.436,56.831h8.221l-8.202-21.227
		l-8.201,21.227H54.436L54.436,56.831L54.436,56.831z"/>
</g>
</svg>
